<svg xmlns="http://www.w3.org/2000/svg" width="100" height="100" viewBox="0 0 100 100"><path fill="#E2574C" d="M50 0c27.614 0 50 22.386 50 50s-22.387 50-50 50c-27.615 0-50-22.386-50-50s22.385-50 50-50z"/><path fill="#EAEAEA" d="M50 19c-17.121 0-31 13.879-31 31s13.879 31 31 31c17.122 0 31-13.879 31-31s-13.879-31-31-31zm28.975 30h-5c-.241-5.873-2.59-11.201-6.314-15.247l3.536-3.535c4.625 4.954 7.532 11.529 7.778 18.782zm-12.729-16.661c-4.046-3.724-9.374-6.072-15.246-6.314v-5c7.253.246 13.827 3.153 18.782 7.779l-3.536 3.535zm-17.246-6.314c-5.873.241-11.201 2.59-15.247 6.314l-3.535-3.536c4.954-4.626 11.529-7.532 18.782-7.778v5zm-15.247 41.636c4.046 3.724 9.373 6.072 15.246 6.313v5c-7.252-.246-13.827-3.152-18.782-7.778l3.536-3.535zm17.247 6.314c5.872-.241 11.2-2.59 15.246-6.313l3.535 3.535c-4.954 4.625-11.529 7.532-18.781 7.778v-5zm-22.196-43.757l3.535 3.536c-3.724 4.046-6.073 9.374-6.314 15.247h-5c.246-7.254 3.153-13.829 7.779-18.783zm-7.779 20.782h5c.241 5.873 2.59 11.201 6.314 15.247l-3.536 3.535c-4.626-4.954-7.532-11.529-7.778-18.782zm50.171 18.782l-3.536-3.536c3.725-4.046 6.073-9.373 6.315-15.246h5c-.246 7.253-3.153 13.828-7.779 18.782z"/><path fill="#CB4E44" d="M43.149 46.717c-3.373 0-6.147 2.654-6.147 6.007 0 3.317 2.742 6.01 6.147 6.01 2.028 0 4.291-1.014 6.364-2.316-1.561 4.382-3.266 6.576-6.364 6.586h13.703c-3.1-.01-4.803-2.204-6.364-6.586 2.073 1.303 4.334 2.316 6.364 2.316 3.404 0 6.148-2.692 6.148-6.01 0-3.353-2.775-6.007-6.148-6.007-.842 0-1.723.174-2.613.47 1.064-1.747 1.768-3.042 1.768-4.834 0-3.521-2.691-6.356-6.006-6.356-3.352 0-6.008 2.869-6.008 6.356 0 1.751.355 3.002 1.383 4.713-.759-.222-1.509-.349-2.227-.349z"/><g fill="#EAEAEA"><path d="M47 9h6c3.865 0 7-3.134 7-7v-.998c-3.231-.656-6.575-1.002-10-1.002s-6.769.346-10 1.002v.998c0 3.866 3.133 7 7 7zM77.369 19.095l4.244 4.242c2.732 2.734 7.164 2.734 9.898 0l.474-.474c-3.66-5.651-8.419-10.523-13.989-14.295l-.627.627c-2.732 2.734-2.732 7.166 0 9.9zM10 53v-6c0-3.866-3.134-7-7-7h-1.999c-.655 3.231-1.001 6.575-1.001 10s.346 6.769 1.002 10h1.998c3.866 0 7-3.134 7-7zM91 47v6c0 3.866 3.135 7 7 7h.998c.656-3.231 1.002-6.575 1.002-10s-.346-6.769-1.002-10h-.998c-3.865 0-7 3.134-7 7zM8.404 22.254l1.083 1.083c2.734 2.734 7.166 2.734 9.899 0l4.243-4.242c2.733-2.733 2.733-7.166 0-9.899l-1.019-1.02c-5.627 3.693-10.467 8.484-14.206 14.078zM91.823 77.39l-1.019-1.02c-2.734-2.733-7.166-2.733-9.898 0l-4.244 4.243c-2.732 2.733-2.732 7.166 0 9.899l1.083 1.083c5.595-3.739 10.386-8.578 14.078-14.205zM22.863 91.986l1.473-1.474c2.733-2.733 2.733-7.166 0-9.899l-4.242-4.243c-2.734-2.733-7.166-2.733-9.9 0l-1.626 1.627c3.772 5.57 8.644 10.329 14.295 13.989zM60 98.998v-1.998c0-3.866-3.135-7-7-7h-6c-3.866 0-7 3.134-7 7v1.998c3.231.656 6.575 1.002 10 1.002s6.769-.346 10-1.002z"/></g></svg>